<svg width="71" height="53" viewBox="0 0 71 53" xmlns="http://www.w3.org/2000/svg"><g fill="none" fill-rule="evenodd"><rect fill="#CFEDF7" x="1.387" y=".791" width="67.723" height="52.209" rx="3"/><g fill="#000"><path d="M46.23 13.204H22.555c-.49 0-.82-.323-.82-.807 0-.483.33-.807.82-.807H46.23c.49 0 .82.324.82.807 0 .484-.33.807-.82.807zM37.22 16.192H22.553c-.49 0-.82-.324-.82-.807 0-.483.33-.807.82-.807h14.584c.49 0 .82.324.82.807 0 .483-.248.807-.74.807zM41.073 25.875h-9.42c-.493 0-.82-.324-.82-.807 0-.483.327-.807.82-.807h9.5c.49 0 .82.325.82.808 0 .483-.41.807-.9.807zM37.63 28.454h-6.064c-.49 0-.82-.323-.82-.806 0-.484.33-.807.82-.807h6.063c.49 0 .818.324.818.808 0 .483-.33.806-.82.806zM25.508 29.83c-2.13 0-3.85-1.695-3.85-3.792 0-2.097 1.72-3.79 3.85-3.79 2.128 0 3.848 1.693 3.848 3.79 0 2.1-1.72 3.79-3.848 3.79zm0-5.973c-1.23 0-2.21.966-2.21 2.177 0 1.21.98 2.177 2.21 2.177 1.228 0 2.21-.966 2.21-2.176 0-1.21-.982-2.177-2.21-2.177zM41.073 36.443h-9.42c-.493 0-.82-.323-.82-.806 0-.483.327-.807.82-.807h9.5c.49 0 .82.324.82.807 0 .483-.41.806-.9.806zM37.63 39.023h-6.064c-.49 0-.82-.322-.82-.807 0-.483.33-.806.82-.806h6.063c.49 0 .818.323.818.806 0 .485-.33.807-.82.807zM25.508 40.398c-2.13 0-3.85-1.693-3.85-3.79 0-2.098 1.72-3.79 3.85-3.79 2.128 0 3.848 1.692 3.848 3.79 0 2.1-1.72 3.79-3.848 3.79zm0-5.892c-1.23 0-2.21.967-2.21 2.177s.98 2.177 2.21 2.177c1.228 0 2.21-.966 2.21-2.177 0-1.21-.982-2.177-2.21-2.177zM65.154 25.875h-9.42c-.492 0-.82-.324-.82-.807 0-.483.328-.807.82-.807h9.42c.492 0 .82.325.82.808 0 .483-.324.807-.82.807zM61.715 28.454h-6.063c-.49 0-.82-.323-.82-.806 0-.484.33-.807.82-.807h6.063c.49 0 .82.324.82.808 0 .483-.33.806-.82.806zM49.59 29.83c-2.13 0-3.85-1.695-3.85-3.792 0-2.097 1.72-3.79 3.85-3.79s3.848 1.693 3.848 3.79c0 2.1-1.715 3.79-3.85 3.79zm0-5.973c-1.23 0-2.21.966-2.21 2.177 0 1.21.98 2.177 2.21 2.177 1.227 0 2.21-.966 2.21-2.176.004-1.21-.983-2.177-2.21-2.177zM65.154 36.443h-9.42c-.492 0-.82-.323-.82-.806 0-.483.328-.807.82-.807h9.42c.492 0 .82.324.82.807 0 .483-.324.806-.82.806zM61.715 39.023h-6.063c-.49 0-.82-.322-.82-.807 0-.483.33-.806.82-.806h6.063c.49 0 .82.323.82.806 0 .485-.33.807-.82.807zM49.59 40.398c-2.13 0-3.85-1.693-3.85-3.79 0-2.098 1.72-3.79 3.85-3.79s3.848 1.692 3.848 3.79c0 2.1-1.715 3.79-3.85 3.79zm0-5.892c-1.23 0-2.21.967-2.21 2.177s.98 2.177 2.21 2.177c1.227 0 2.21-.966 2.21-2.177 0-1.21-.983-2.177-2.21-2.177z"/><path d="M68.27 52.58H2.73c-1.39 0-2.457-1.05-2.457-2.42V2.555c0-1.37 1.067-2.42 2.458-2.42h65.54c1.39 0 2.457 1.05 2.457 2.42V50.16c0 1.37-1.067 2.42-2.458 2.42zM2.73 1.75c-.49 0-.818.324-.818.807V50.16c0 .483.328.807.82.807h65.537c.49 0 .818-.324.818-.807V2.555c0-.483-.328-.807-.82-.807H2.732z"/><path d="M69.908 8.124H1.502c-.49 0-.82-.324-.82-.807 0-.483.33-.807.82-.807h68.406c.49 0 .82.324.82.807 0 .483-.33.807-.82.807zM6.008 4.01c0 1.394-2.13 1.394-2.13 0 0-1.4 2.13-1.4 2.13 0M9.856 4.01c0 1.394-2.13 1.394-2.13 0 0-1.4 2.13-1.4 2.13 0M13.71 4.01c0 1.394-2.13 1.394-2.13 0 0-1.4 2.13-1.4 2.13 0M12.233 24.18H4.53c-.49 0-.818-.323-.818-.806 0-.484.328-.807.82-.807h7.7c.49 0 .82.323.82.807 0 .483-.33.807-.82.807zM15.267 27.97H4.53c-.49 0-.818-.322-.818-.806 0-.483.328-.806.82-.806h10.73c.49 0 .82.323.82.806.004.484-.324.807-.815.807zM13.133 31.846H4.53c-.49 0-.818-.323-.818-.806 0-.485.328-.807.82-.807h8.6c.492 0 .82.322.82.807 0 .483-.323.806-.82.806zM11.004 35.637H4.53c-.49 0-.818-.324-.818-.807 0-.483.328-.807.82-.807h6.472c.49 0 .82.324.82.807 0 .483-.41.807-.82.807zM13.133 39.427H4.53c-.49 0-.818-.323-.818-.807 0-.483.328-.807.82-.807h8.6c.492 0 .82.324.82.807 0 .484-.323.807-.82.807zM7.565 18.772c-2.13 0-3.85-1.693-3.85-3.79s1.72-3.79 3.85-3.79 3.85 1.693 3.85 3.79c-.082 2.097-1.72 3.79-3.85 3.79zm0-5.887c-1.23 0-2.21.966-2.21 2.176 0 1.212.98 2.178 2.21 2.178s2.21-.966 2.21-2.177c0-1.21-.98-2.175-2.21-2.175z"/><path d="M17.887 52.177c-.49 0-.82-.324-.82-.807V7.317c0-.483.33-.807.82-.807.49 0 .82.324.82.807V51.37c0 .404-.41.807-.82.807z"/></g></g></svg>